HIERARCHY
ROOT Hips
{
	OFFSET 0.00000 0.00000 0.00000
	CHANNELS 6 Xposition Yposition Zposition Zrotation Yrotation Xrotation 
	JOINT LHipJoint
	{
		OFFSET 0 0 0
		CHANNELS 3 Zrotation Yrotation Xrotation
		JOINT LeftHip
		{
			OFFSET 1.37959 -1.78713 0.86582
			CHANNELS 3 Zrotation Yrotation Xrotation
			JOINT LeftKnee
			{
				OFFSET 2.54611 -6.99539 0.00000
				CHANNELS 3 Zrotation Yrotation Xrotation
				JOINT LeftAnkle
				{
					OFFSET 2.59951 -7.14211 0.00000
					CHANNELS 3 Zrotation Yrotation Xrotation
					JOINT LeftToe
					{
						OFFSET 0.18493 -0.50810 1.96120
						CHANNELS 3 Zrotation Yrotation Xrotation
						End Site
						{
							OFFSET 0.00000 -0.00000 1.02054
						}
					}
				}
			}
		}
	}
	JOINT RHipJoint
	{
		OFFSET 0 0 0
		CHANNELS 3 Zrotation Yrotation Xrotation
		JOINT RightHip
		{
			OFFSET -1.33564 -1.78713 0.86582
			CHANNELS 3 Zrotation Yrotation Xrotation
			JOINT RightKnee
			{
				OFFSET -2.52705 -6.94302 0.00000
				CHANNELS 3 Zrotation Yrotation Xrotation
				JOINT RightAnkle
				{
					OFFSET -2.55964 -7.03257 0.00000
					CHANNELS 3 Zrotation Yrotation Xrotation
					JOINT RightToe
					{
						OFFSET -0.25804 -0.70896 2.12109
						CHANNELS 3 Zrotation Yrotation Xrotation
						End Site
						{
							OFFSET -0.00000 -0.00000 1.11821
						}
					}
				}
			}
		}
	}
	JOINT lowerback
	{
		OFFSET 0 0 0
		CHANNELS 3 Zrotation Yrotation Xrotation
		JOINT Chest
		{
			OFFSET -0.02031 2.24248 -0.18900
			CHANNELS 3 Zrotation Yrotation Xrotation
			JOINT Chest2
			{
				OFFSET 0.08342 2.24689 -0.03799
				CHANNELS 3 Zrotation Yrotation Xrotation
				JOINT lowerneck
				{
					OFFSET 0 0 0
					CHANNELS 3 Zrotation Yrotation Xrotation
					JOINT Neck
					{
						OFFSET -0.11607 1.55844 0.24628
						CHANNELS 3 Zrotation Yrotation Xrotation
						JOINT Head
						{
							OFFSET 0.06877 1.60174 -0.17013
							CHANNELS 3 Zrotation Yrotation Xrotation
							End Site
							{
								OFFSET 0.03358 1.61266 -0.08543
							}
						}
					}
				}
				JOINT LeftCollar
				{
					OFFSET 0 0 0
					CHANNELS 3 Zrotation Yrotation Xrotation
					JOINT LeftShoulder
					{
						OFFSET 3.47537 0.55866 -0.72348
CHANNELS 3 Zrotation Xrotation Yrotation
						JOINT LeftElbow
						{
OFFSET 0 -5.381540 0.000000
CHANNELS 3 Zrotation Xrotation Yrotation
							JOINT LeftWrist
							{
OFFSET 0 -3.333120 0.000000
CHANNELS 3 Zrotation Xrotation Yrotation
								JOINT lhand
								{
									OFFSET 0 0 0
CHANNELS 3 Zrotation Xrotation Yrotation
									JOINT LFingers
									{
OFFSET 0 -0.710790 0.000000
CHANNELS 3 Zrotation Xrotation Yrotation
										End Site
										{
OFFSET 0 -0.573060 0.000000
										}
									}
								}
								JOINT LThumb
								{
OFFSET 0 0.000000 0.000000
CHANNELS 3 Zrotation Xrotation Yrotation
									End Site
									{
OFFSET 0 -0.581810 0.581810
									}
								}
							}
						}
					}
				}
				JOINT RightCollar
				{
					OFFSET 0 0 0
					CHANNELS 3 Zrotation Yrotation Xrotation
					JOINT RightShoulder
					{
						OFFSET -3.27844 0.90739 -0.35708
CHANNELS 3 Zrotation Xrotation Yrotation
						JOINT RightElbow
						{
OFFSET 0 -5.169540 0.000000
CHANNELS 3 Zrotation Xrotation Yrotation
							JOINT RightWrist
							{
OFFSET 0 -3.382870 0.000000
CHANNELS 3 Zrotation Xrotation Yrotation
								JOINT rhand
								{
									OFFSET 0 0 0
CHANNELS 3 Zrotation Xrotation Yrotation
									JOINT RFingers
									{
OFFSET 0 -0.817970 0.000000
CHANNELS 3 Zrotation Xrotation Yrotation
										End Site
										{
OFFSET 0 -0.659470 0.000000
										}
									}
								}
								JOINT RThumb
								{
OFFSET 0 0.000000 0.000000
CHANNELS 3 Zrotation Xrotation Yrotation
									End Site
									{
OFFSET 0 -0.669530 0.669530
									}
								}
							}
						}
					}
				}
			}
		}
	}
}
MOTION
Frames: 9
Frame Time: 0.008333333333333333
-4.229946 17.608971 8.683890 -185.504953 -24.528833 -167.730290 0.000000 0.000000 0.000000 -25.474450 -2.290385 9.214174 0.293523 3.482669 9.625663 -2.032606 -25.052151 2.861600 1.106866 6.684475 18.783820 0.000000 0.000000 0.000000 15.715661 7.247941 -35.506809 -1.145241 -6.794856 19.109248 0.570691 -13.283366 -5.861049 -0.251725 -3.147773 8.696608 -7.198997 -3.329215 6.366622 0.533319 -5.102369 -2.879741 5.145460 -2.233845 -5.928539 -14.369595 -8.273377 -12.752890 5.555044 -9.355996 11.326589 3.132155 -4.764139 6.475857 0.000000 0.000000 0.000000 10.990453 0.636964 -18.667871 28.219788 -39.317313 10.262814 4.658477 7.585443 -34.243646 0.000000 0.000000 0.000000 -7.125000 0.000000 0.000000 -33.152284 61.167795 13.912213 0.000000 0.000000 0.000000 -79.698281 -26.589118 -62.513436 -71.863793 -58.714433 -44.361849 -40.447143 -41.864376 -18.279962 0.000000 0.000000 0.000000 7.125000 0.000000 0.000000 -7.850944 6.695692 -6.951747
-4.235797 17.616383 8.618534 -185.455030 -24.700088 -167.829184 0.000000 0.000000 0.000000 -25.298501 -2.317199 9.634103 0.282768 3.419622 9.449313 -2.027082 -24.921922 3.252252 1.080702 6.603876 18.548182 0.000000 0.000000 0.000000 15.807867 7.266509 -35.328965 -1.169129 -6.863356 19.311258 0.630955 -13.908365 -5.234211 -0.338083 -3.719720 10.291581 -7.159431 -3.310427 6.444000 0.581457 -5.071454 -2.816039 5.174307 -2.220348 -5.907799 -14.308799 -8.355762 -12.877536 5.427122 -9.439770 11.303675 3.067235 -4.808415 6.488418 0.000000 0.000000 0.000000 10.856212 0.630670 -18.462228 28.055294 -39.166715 10.158729 4.652495 7.593824 -34.266178 0.000000 0.000000 0.000000 -7.125000 0.000000 0.000000 -33.182066 61.184930 13.939965 0.000000 0.000000 0.000000 -80.675111 -27.045626 -62.950980 -70.908290 -58.574403 -43.545472 -40.058179 -41.060880 -18.053756 0.000000 0.000000 0.000000 7.125000 0.000000 0.000000 -7.654829 7.082117 -6.714607
-4.242661 17.623672 8.553823 -185.347050 -24.812580 -167.913639 0.000000 0.000000 0.000000 -25.123535 -2.492165 10.010104 0.276714 3.382871 9.346655 -1.982271 -24.582904 3.590654 0.984869 6.303461 17.671771 0.000000 0.000000 0.000000 15.945811 7.328482 -35.173975 -1.189915 -6.921627 19.483563 0.658259 -14.209475 -4.834685 -0.441706 -4.213767 11.686335 -7.086352 -3.286479 6.351600 0.649561 -5.011756 -2.677632 5.185645 -2.203379 -5.715132 -14.341231 -8.442570 -13.023193 5.436571 -9.524650 11.222459 3.060525 -4.844858 6.496864 0.000000 0.000000 0.000000 10.697520 0.457516 -18.215147 27.824757 -38.952992 10.013881 4.666726 7.690273 -34.355030 0.000000 0.000000 0.000000 -7.125000 0.000000 0.000000 -33.262009 61.261750 14.039075 0.000000 0.000000 0.000000 -81.755952 -27.585410 -63.548534 -69.849084 -58.399938 -42.643454 -39.806431 -40.414967 -17.979327 0.000000 0.000000 0.000000 7.125000 0.000000 0.000000 -7.511948 7.240462 -6.564245
-4.249526 17.630960 8.489112 -185.239070 -24.925072 -167.998095 0.000000 0.000000 0.000000 -24.948569 -2.667131 10.386106 0.270659 3.346119 9.243997 -1.937459 -24.243885 3.929055 0.889037 6.003045 16.795359 0.000000 0.000000 0.000000 16.083755 7.390455 -35.018986 -1.210702 -6.979897 19.655868 0.685562 -14.510584 -4.435159 -0.545328 -4.707814 13.081089 -7.013272 -3.262531 6.259200 0.717666 -4.952059 -2.539225 5.196983 -2.186411 -5.522465 -14.373664 -8.529379 -13.168850 5.446019 -9.609530 11.141243 3.053814 -4.881301 6.505310 0.000000 0.000000 0.000000 10.538828 0.284362 -17.968065 27.594220 -38.739269 9.869034 4.680956 7.786722 -34.443882 0.000000 0.000000 0.000000 -7.125000 0.000000 0.000000 -33.341953 61.338570 14.138186 0.000000 0.000000 0.000000 -82.836793 -28.125194 -64.146087 -68.789878 -58.225473 -41.741436 -39.554683 -39.769054 -17.904898 0.000000 0.000000 0.000000 7.125000 0.000000 0.000000 -7.369068 7.398807 -6.413883
-4.258250 17.637119 8.423248 -185.047055 -24.981917 -168.123038 0.000000 0.000000 0.000000 -24.714543 -2.789299 10.702836 0.270630 3.346135 9.244040 -1.897049 -23.937162 4.258465 0.834022 5.824939 16.277544 0.000000 0.000000 0.000000 16.318470 7.449979 -34.851332 -1.228757 -7.029929 19.804069 0.686949 -14.533837 -4.225195 -0.637157 -5.094122 14.180120 -6.838174 -3.214360 6.206934 0.778826 -4.859194 -2.462114 5.147707 -2.150800 -5.430546 -14.473442 -8.603358 -13.205050 5.541291 -9.697635 11.136670 3.087427 -4.919439 6.528750 0.000000 0.000000 0.000000 10.439337 0.263249 -17.756575 27.393248 -38.550991 9.743489 4.573112 7.871143 -34.652573 0.000000 0.000000 0.000000 -7.125000 0.000000 0.000000 -33.676450 61.482689 14.417512 0.000000 0.000000 0.000000 -83.831363 -28.617759 -64.639244 -67.701954 -58.028034 -40.818044 -39.282574 -39.108029 -17.753967 0.000000 0.000000 0.000000 7.125000 0.000000 0.000000 -7.226540 7.653122 -6.252104
-4.268161 17.642557 8.356647 -184.801401 -25.003243 -168.273825 0.000000 0.000000 0.000000 -24.442819 -2.877765 10.981733 0.274448 3.369621 9.309638 -1.859449 -23.651054 4.582135 0.805060 5.724904 15.988621 0.000000 0.000000 0.000000 16.614952 7.507942 -34.675594 -1.245070 -7.074702 19.936884 0.671793 -14.379734 -4.136227 -0.721458 -5.411660 15.090391 -6.597957 -3.150729 6.180286 0.835554 -4.745160 -2.424128 5.059742 -2.103288 -5.402934 -14.616207 -8.669149 -13.171384 5.691345 -9.787798 11.181019 3.146777 -4.958659 6.561761 0.000000 0.000000 0.000000 10.377634 0.339182 -17.567803 27.211147 -38.378956 9.630264 4.387347 7.947886 -34.937755 0.000000 0.000000 0.000000 -7.125000 0.000000 0.000000 -34.173428 61.669764 14.811870 0.000000 0.000000 0.000000 -84.770866 -29.080183 -65.065765 -66.595699 -57.815931 -39.881009 -38.997469 -38.437358 -17.554204 0.000000 0.000000 0.000000 7.125000 0.000000 0.000000 -7.084238 7.968693 -6.083038
-4.278088 17.647990 8.290084 -184.558050 -25.023543 -168.423109 0.000000 0.000000 0.000000 -24.173845 -2.966633 11.257795 0.278506 3.394475 9.379066 -1.821832 -23.364950 4.905949 0.777323 5.629070 15.711843 0.000000 0.000000 0.000000 16.908596 7.566820 -34.500189 -1.261322 -7.119299 20.069181 0.656423 -14.223150 -4.046889 -0.806433 -5.730443 16.004555 -6.359050 -3.086400 6.153757 0.890776 -4.630454 -2.386717 4.970902 -2.055390 -5.376080 -14.756263 -8.735009 -13.136280 5.840013 -9.878592 11.224750 3.205254 -4.998191 6.594191 0.000000 0.000000 0.000000 10.317598 0.416722 -17.381734 27.029389 -38.207202 9.517269 4.214152 8.022935 -35.220184 0.000000 0.000000 0.000000 -7.125000 0.000000 0.000000 -34.654881 61.857752 15.199271 0.000000 0.000000 0.000000 -85.707694 -29.541588 -65.493155 -65.490758 -57.603575 -38.945183 -38.707807 -37.761640 -17.350800 0.000000 0.000000 0.000000 7.125000 0.000000 0.000000 -6.939591 8.289613 -5.911395
-4.288963 17.653196 8.225643 -184.445442 -24.985596 -168.487125 0.000000 0.000000 0.000000 -24.060968 -3.078238 11.372986 0.296168 3.496979 9.665869 -1.783268 -23.079112 5.237949 0.819088 5.771719 16.124326 0.000000 0.000000 0.000000 17.041219 7.677692 -34.343618 -1.274164 -7.153891 20.172032 0.628849 -13.925742 -3.936518 -0.929607 -6.119865 17.139617 -6.194458 -2.982430 6.133935 0.860542 -4.477623 -2.381896 4.832418 -1.985512 -5.392277 -14.742573 -8.804810 -13.019623 5.910085 -10.005199 11.233388 3.214123 -5.055420 6.593690 0.000000 0.000000 0.000000 10.352113 0.585479 -17.349070 26.867033 -38.051403 9.417311 4.754206 8.001879 -35.346289 0.000000 0.000000 0.000000 -7.125000 0.000000 0.000000 -34.255317 62.097506 15.191828 0.000000 0.000000 0.000000 -86.492747 -29.945124 -65.969887 -64.460398 -57.376894 -38.077950 -38.159577 -36.799499 -16.940785 0.000000 0.000000 0.000000 7.125000 0.000000 0.000000 -6.661851 8.914045 -5.593510
-4.299839 17.658403 8.161202 -184.332835 -24.947648 -168.551142 0.000000 0.000000 0.000000 -23.948090 -3.189843 11.488178 0.313831 3.599483 9.952671 -1.744704 -22.793274 5.569949 0.860853 5.914369 16.536810 0.000000 0.000000 0.000000 17.173842 7.788564 -34.187047 -1.287006 -7.188483 20.274883 0.601276 -13.628335 -3.826147 -1.052781 -6.509287 18.274679 -6.029865 -2.878461 6.114113 0.830308 -4.324793 -2.377075 4.693933 -1.915633 -5.408474 -14.728882 -8.874611 -12.902966 5.980156 -10.131805 11.242026 3.222993 -5.112650 6.593189 0.000000 0.000000 0.000000 10.386628 0.754237 -17.316407 26.704677 -37.895603 9.317352 5.294260 7.980823 -35.472394 0.000000 0.000000 0.000000 -7.125000 0.000000 0.000000 -33.855752 62.337260 15.184385 0.000000 0.000000 0.000000 -87.277800 -30.348661 -66.446618 -63.430038 -57.150213 -37.210716 -37.611347 -35.837359 -16.530769 0.000000 0.000000 0.000000 7.125000 0.000000 0.000000 -6.384111 9.538478 -5.275625
